<?xml version="1.0" encoding="iso-8859-1"?>
<!-- Generator: Adobe Illustrator 16.0.0, SVG Export Plug-In . SVG Version: 6.00 Build 0)  -->
<!DOCTYPE svg PUBLIC "-//W3C//DTD SVG 1.1//EN" "http://www.w3.org/Graphics/SVG/1.1/DTD/svg11.dtd">
<svg version="1.1" id="Capa_1" xmlns="http://www.w3.org/2000/svg" xmlns:xlink="http://www.w3.org/1999/xlink" x="0px" y="0px"
	 width="31.895px" height="31.895px" viewBox="0 0 31.895 31.895" style="enable-background:new 0 0 31.895 31.895;"
	 xml:space="preserve">
<g>
	<g>
		<path d="M30.576,6.925c-1.229-1.228-6.105-5.692-7.167-6.754c-0.77-0.769-0.053,1.237,0.401,2.403
			c-2.88-1.02-6.406,0.006-8.666,2.775c-0.647,0.794-1.018,1.732-1.2,2.717c-0.213-0.952-0.475-1.984-0.612-2.332
			c-0.203-0.512-0.852-0.224-0.606,0.255c0.246,0.478,0.748,5.524,0.45,5.228c-1.857-0.669-1.802,1.165-0.947,2.688
			c0.242,0.431,0.697,0.984,1.252,1.571c-1.536,2.441-11.317,5.331-12.138,9.093c-0.821,3.763,3.055,5.013,8.992,4.532
			c3.313-0.363,10.563-0.428,10.781,2.793c1.762-3.478-5.635-4.479-10.114-3.833c-4.479,0.646-8.017-1.032-8.117-3.347
			c-0.1-2.312,10.229-7.013,11.531-8.308c0.229,0.227,0.452,0.427,0.676,0.632c-1.907,0.94-9.47,4.854-8.85,7.46
			c0.709,2.981,9.037,1.753,12,1.895c2.963,0.14,4.942,2.066,4.688,3.904c2.313-1.875-1.229-5.237-4.469-5.094
			c-3.24,0.146-9.077,0.029-9.552-1.641c-0.406-1.433,5.186-4.988,6.799-5.979c0.851,0.726,1.619,1.274,2.168,1.559
			c1.301,0.669,2.242,0.22,1.866-1.345c2.562-0.521,4.397,0.326,4.789,0.242c0.208-0.061,0.392-0.174,0.354-0.524
			c-0.076-0.23-1.223-0.424-2.319-0.569c1.317-0.448,2.567-1.305,3.619-2.594c2.02-2.476,2.463-5.659,1.409-8.176
			C28.517,6.55,31.164,7.585,30.576,6.925z"/>
		<path d="M16.648,19.425c0,0-2.394-0.342-3.807,1.376c-1.413,1.72,0.482,3.216,1.561,3.513c1.077,0.297,3.554,0.463,3.683-1.246
			c0.111-1.505-2.156-1.176-2.938-1.206C13.102,21.712,16.648,19.425,16.648,19.425z"/>
		<path d="M17.283,20.546c-0.644-0.047,0.473-0.765,0.473-0.765s-0.752-0.107-1.194,0.432c-0.445,0.54,0.149,1.012,0.489,1.104
			c0.338,0.094,1.115,0.146,1.156-0.393C18.241,20.452,17.529,20.556,17.283,20.546z"/>
	</g>
</g>
<g>
</g>
<g>
</g>
<g>
</g>
<g>
</g>
<g>
</g>
<g>
</g>
<g>
</g>
<g>
</g>
<g>
</g>
<g>
</g>
<g>
</g>
<g>
</g>
<g>
</g>
<g>
</g>
<g>
</g>
</svg>
