<?xml version="1.0" encoding="iso-8859-1"?>
<!-- Generator: Adobe Illustrator 16.0.0, SVG Export Plug-In . SVG Version: 6.00 Build 0)  -->
<!DOCTYPE svg PUBLIC "-//W3C//DTD SVG 1.1//EN" "http://www.w3.org/Graphics/SVG/1.1/DTD/svg11.dtd">
<svg version="1.1" id="Capa_1" xmlns="http://www.w3.org/2000/svg" xmlns:xlink="http://www.w3.org/1999/xlink" x="0px" y="0px"
	 width="31.912px" height="31.912px" viewBox="0 0 31.912 31.912" style="enable-background:new 0 0 31.912 31.912;"
	 xml:space="preserve">
<g>
	<path d="M28.432,21.139c-0.022-2.339,0.187-7.563,0.253-9.375s-2.566-4.011-2.566-4.011s0.199-0.794,0.711-0.733
		s0.619,0.157,0.955-0.042c0.168-0.1,0.268-0.547,0.438-0.656c0.172-0.109-0.096-0.454-0.096-0.454s0.263,0.044,0.282-0.062
		c0.029-0.158-0.172-0.297-0.108-0.547c0.062-0.25,0.5-0.125,0.578-0.422c-0.125-0.548-0.662-1.599-0.354-1.713
		c0.31-0.114,0.762,0.038,1.168-0.115c0.403-0.153,0.469-0.672,0.125-1.375c-0.345-0.703-1.812-1.625-3.142-1.625
		c-3.241-0.187-5.392,2.563-3.856,5.177c0.724,1.438,0.17,2.588-1.33,2.401s-7.472,4.081-9.264,3.863
		c-0.889-0.107-1.38-0.107-1.645,0.003c-0.03,0.003-0.062,0.006-0.093,0.011L9.47,8.853c0.495,0.01,1.455-0.064,2.083-0.717
		c0.875-0.908,1.35-2.328-1.526-3.537C9.652,4.46,9.615,3.375,10.102,2.571C8.928,2.27,8.634,3.799,9.071,4.601
		c0.436,0.802,0.963,1.278,1.186,1.874c0.223,0.596-1.119,0.8-1.119,0.8L8.294,6.036l1.12-0.372L6.73,3.112L6.728,3.108V3.11
		L6.724,3.106l0.004,0.01L6.705,6.821l1.047-0.55l0.305,1.466c0,0-1.077,0.825-1.353,0.252C6.43,7.417,6.453,6.706,6.178,5.835
		S4.597,4.116,4,5.17c0.917,0.207,1.674,0.986,1.513,1.353c-1.123,2.911,0.229,3.552,1.49,3.552c0.896,0,1.612-0.631,1.952-0.996
		l1.004,2.571c-0.184,0.122-0.301,0.281-0.301,0.459c0,0.293,0.305,0.537,0.727,0.633l1.963,5.035
		c-1.978-0.242-4.336,0.885-4.336,0.885s-4.951-3.85-7.335-0.78c4.354,1.514,5.135,3.072,5.135,5.363c0,2.293,0.55,8.48,8.113,8.664
		c7.562,0.184,9.354-7.586,9.441-10.979c0.086-3.394,2.75-8.534,2.781-7.066c0.385,0.613-0.244,9.888,1.713,10.066
		c1.055,0.184,2.428,0.124,3.344,0.108C31.581,22.432,28.454,23.477,28.432,21.139z M11.862,24.759
		c-2.571-0.448-2.082-3.331,1.161-5.252l1.63,4.181C13.873,24.44,12.946,24.949,11.862,24.759z M18.522,18.191
		c-0.77,1.209-2.379,3.812-3.444,5.04l-1.562-4.002c0.26-0.135,0.531-0.264,0.82-0.383c-0.35-0.479-0.814-0.766-1.331-0.93
		l-2.013-5.157c0.062-0.008,0.127-0.008,0.185-0.021c1.994,0.7,6.614-0.888,8.492-2.296C21.321,10.351,19.292,16.982,18.522,18.191z
		"/>
</g>
<g>
</g>
<g>
</g>
<g>
</g>
<g>
</g>
<g>
</g>
<g>
</g>
<g>
</g>
<g>
</g>
<g>
</g>
<g>
</g>
<g>
</g>
<g>
</g>
<g>
</g>
<g>
</g>
<g>
</g>
</svg>
