<?xml version="1.0" encoding="iso-8859-1"?>
<!-- Generator: Adobe Illustrator 16.0.0, SVG Export Plug-In . SVG Version: 6.00 Build 0)  -->
<!DOCTYPE svg PUBLIC "-//W3C//DTD SVG 1.1//EN" "http://www.w3.org/Graphics/SVG/1.1/DTD/svg11.dtd">
<svg version="1.1" id="Capa_1" xmlns="http://www.w3.org/2000/svg" xmlns:xlink="http://www.w3.org/1999/xlink" x="0px" y="0px"
	 width="32px" height="32px" viewBox="0 0 32 32" style="enable-background:new 0 0 32 32;" xml:space="preserve">
<g>
	<path d="M28.889,26.018c0.65-0.07,3.205-3.303,3.108-3.976c-0.097-0.674-4.192-6.502-4.192-6.502S27.516,9.905,22.6,8.505
		C16.145-6.484,4.916,1.612,6.362,8.936c8.866-7.854,11.107,2.047,11.107,2.047s-6.481-4.266-6.867-1.012
		c-0.386,3.254,5.349,4.892,7.902,5.569c0.049,0.287-5.685-1.202-6.456-1.232C11.277,14.278,0,18.13,0,18.13l0.152,13.804
		l13.414-0.254c0,0,3.806-5.662,4.938-6.119c1.133-0.455,1.109,0.676,1.061,1.908c0.725-0.173,0.795-2.103,0.795-2.103
		s1.472,1.156,0.361,2.818c1.735-0.168,1.146-3.625,1.657-3.824C22.891,24.165,28.238,26.089,28.889,26.018z"/>
</g>
<g>
</g>
<g>
</g>
<g>
</g>
<g>
</g>
<g>
</g>
<g>
</g>
<g>
</g>
<g>
</g>
<g>
</g>
<g>
</g>
<g>
</g>
<g>
</g>
<g>
</g>
<g>
</g>
<g>
</g>
</svg>
