<?xml version="1.0" encoding="iso-8859-1"?>
<!-- Generator: Adobe Illustrator 16.0.0, SVG Export Plug-In . SVG Version: 6.00 Build 0)  -->
<!DOCTYPE svg PUBLIC "-//W3C//DTD SVG 1.1//EN" "http://www.w3.org/Graphics/SVG/1.1/DTD/svg11.dtd">
<svg version="1.1" id="Capa_1" xmlns="http://www.w3.org/2000/svg" xmlns:xlink="http://www.w3.org/1999/xlink" x="0px" y="0px"
	 width="32.257px" height="32.257px" viewBox="0 0 32.257 32.257" style="enable-background:new 0 0 32.257 32.257;"
	 xml:space="preserve">
<g>
	<path d="M0.448,26.795h21.862c-0.02-3.396,0.83-4.469,1.275-5.629c0.447-1.162,1.831-2.231,1.831-2.231s0.894,2.389-1.026,3.685
		c2.946,0.065,2.887-3.537,2.887-3.537s4.979,1.688,4.979-0.345c0-1.728-2.104-1.459-2.104-4.001
		c-0.223-1.742-0.707-2.561-2.354-3.012c0.289-4.114-13.395-12.987-17.812,2.596c6.158-9.231,15.097-3.85,13.245-1.751
		c-3.662,2.881-2.59,7.347-6.162,7.302C11.361,19.512,5.276,16.06,1.57,19.768C-1.104,22.44,0.448,26.795,0.448,26.795z
		 M27.021,14.517c0-0.396,0.408-0.715,0.912-0.715c0.5,0,0.908,0.319,0.908,0.715c0,0.395-0.408,0.714-0.908,0.714
		S27.021,14.911,27.021,14.517z"/>
</g>
<g>
</g>
<g>
</g>
<g>
</g>
<g>
</g>
<g>
</g>
<g>
</g>
<g>
</g>
<g>
</g>
<g>
</g>
<g>
</g>
<g>
</g>
<g>
</g>
<g>
</g>
<g>
</g>
<g>
</g>
</svg>
