<?xml version="1.0" encoding="iso-8859-1"?>
<!-- Generator: Adobe Illustrator 16.0.0, SVG Export Plug-In . SVG Version: 6.00 Build 0)  -->
<!DOCTYPE svg PUBLIC "-//W3C//DTD SVG 1.1//EN" "http://www.w3.org/Graphics/SVG/1.1/DTD/svg11.dtd">
<svg version="1.1" id="Capa_1" xmlns="http://www.w3.org/2000/svg" xmlns:xlink="http://www.w3.org/1999/xlink" x="0px" y="0px"
	 width="32px" height="32px" viewBox="0 0 32 32" style="enable-background:new 0 0 32 32;" xml:space="preserve">
<g>
	<path d="M22.601,9.164c0,0,1.348-7.066,3.921-9.068c-2.491-0.898-7.477,4.698-7.68,8.007c-0.13-0.255-5.558-0.255-5.685,0
		c-0.203-3.309-5.187-8.905-7.679-8.007C8.054,2.098,9.4,9.164,9.4,9.164s-5.229-0.163-5.024,2.165c0.204,2.329,4.78,1.7,4.78,1.7
		s-1.716,3.283-1.349,5.285c0.368,2.002,3.555,3.474,3.555,3.474s0.139,5.483,0.139,6.809c0,1.32,1.803,3.403,4.5,3.403
		c2.684,0,4.489-2.401,4.489-3.366c0-0.963,0.148-6.846,0.148-6.846s3.187-1.472,3.555-3.474c0.368-2.001-1.349-5.285-1.349-5.285
		s4.574,0.629,4.778-1.7C27.83,9.001,22.601,9.164,22.601,9.164z"/>
</g>
<g>
</g>
<g>
</g>
<g>
</g>
<g>
</g>
<g>
</g>
<g>
</g>
<g>
</g>
<g>
</g>
<g>
</g>
<g>
</g>
<g>
</g>
<g>
</g>
<g>
</g>
<g>
</g>
<g>
</g>
</svg>
