<?xml version="1.0" encoding="iso-8859-1"?>
<!-- Generator: Adobe Illustrator 16.0.0, SVG Export Plug-In . SVG Version: 6.00 Build 0)  -->
<!DOCTYPE svg PUBLIC "-//W3C//DTD SVG 1.1//EN" "http://www.w3.org/Graphics/SVG/1.1/DTD/svg11.dtd">
<svg version="1.1" id="Capa_1" xmlns="http://www.w3.org/2000/svg" xmlns:xlink="http://www.w3.org/1999/xlink" x="0px" y="0px"
	 width="33.788px" height="33.788px" viewBox="0 0 33.788 33.788" style="enable-background:new 0 0 33.788 33.788;"
	 xml:space="preserve">
<g>
	<path d="M32.854,24.648c-1.398-0.146-3.166-2.414-4.842-3.9c0.307-0.548,0.536-1.124,0.69-1.723
		c1.194,1.207,2.68,2.195,4.342,2.195c0.41,0,0.744-0.334,0.744-0.744c0-0.412-0.44,0.129-0.853,0.129
		c-1.521,0-2.895-2.178-4.033-3.596c-0.002-0.048-0.006-0.096-0.008-0.144c1.744-1.172,3.39-2.999,4.166-3.094
		c0.408-0.051,0.771,0.396,0.722-0.012c-0.052-0.407-0.423-0.693-0.83-0.649c-0.998,0.123-2.72,1.098-4.356,2.165
		c-0.097-0.304-0.214-0.603-0.351-0.894c2.435-1.12,6.664-2.904,2.771-7.87C30.214,4.41,25.46-1.331,18.369,1.815
		c0.418,1.393,5.365,2.932,5.365,2.932s-1.9,0.329-4.916-1.71c-0.021-0.024-0.041-0.052-0.062-0.076
		c-0.003,0.013-0.005,0.023-0.006,0.036c-0.002-0.001-0.002-0.001-0.004-0.003c0,0.005,0.002,0.011,0.004,0.016
		c0,0.007-0.002,0.012-0.002,0.019l1.215,2.528c-0.006-0.033-0.002-0.064-0.008-0.098c1.619,1.725,4.211,2.093,4.211,2.093
		s5.076,0.836,5.92,1.062c2.166,2.016-1.066,3.584-3.162,3.772c-2.127-2.376-5.742-3.941-9.849-3.941
		c-0.062,0-0.12,0.003-0.18,0.007c-0.06-0.004-0.119-0.007-0.18-0.007c-4.105,0-7.723,1.565-9.85,3.941
		c-2.095-0.189-5.328-1.758-3.163-3.773c0.845-0.226,5.923-1.062,5.923-1.062s2.591-0.368,4.209-2.093
		c-0.005,0.033-0.002,0.064-0.008,0.098l1.217-2.528C15.041,3.021,15.04,3.017,15.04,3.01c0.002-0.005,0.003-0.011,0.005-0.016
		c-0.003,0.002-0.004,0.002-0.006,0.003c-0.001-0.013-0.003-0.022-0.004-0.035c-0.023,0.024-0.04,0.052-0.063,0.076
		c-3.015,2.039-4.917,1.71-4.917,1.71s4.949-1.539,5.367-2.932C8.328-1.33,3.574,4.412,2.773,6.513
		c-3.894,4.966,0.336,6.75,2.77,7.87c-0.137,0.291-0.254,0.59-0.351,0.894c-1.636-1.067-3.358-2.042-4.356-2.165
		c-0.407-0.044-0.729-0.165-0.779,0.242c-0.051,0.408,0.514,0.451,0.922,0.502c0.777,0.095,2.168,1.839,3.915,3.011
		c-0.003,0.048-0.007,0.096-0.009,0.144c-1.139,1.419-2.303,3.388-3.823,3.388C0.65,20.398,0,20.064,0,20.477
		c0,0.41,0.334,0.744,0.745,0.744c1.662,0,3.146-0.988,4.341-2.195c0.154,0.599,0.386,1.175,0.691,1.723
		c-1.676,1.486-3.273,3.629-4.674,3.775c-0.41,0.041-1.142-0.227-1.1,0.184c0.041,0.383,0.363,0.668,0.74,0.668
		c0.026,0,0.052-0.002,0.078-0.004c1.805-0.188,4.063-1.846,5.817-3.387c0.466,0.562,1.006,1.091,1.623,1.562L3.18,26.719
		c-0.305,0.188-0.431,0.569-0.299,0.903l1.887,4.799c0.115,0.293,0.396,0.474,0.693,0.474c0.09,0,0.183-0.019,0.271-0.053
		c0.383-0.15,0.142-0.589-0.171-1.027c-0.826-1.16-1.067-4.16-1.067-4.16l5.15-3.215c1.975,1.104,4.416,1.767,7.07,1.767
		c0.061,0,0.12-0.004,0.18-0.007c0.06,0.003,0.12,0.007,0.18,0.007c2.654,0,5.095-0.662,7.07-1.767l5.151,3.215l-0.817,4.201
		c-0.148,0.385-0.806,0.836-0.422,0.986c0.09,0.034,0.182,0.053,0.273,0.053c0.295,0,0.574-0.181,0.689-0.474l1.889-4.799
		c0.131-0.334,0.006-0.715-0.301-0.903l-5.082-3.175c0.617-0.471,1.158-0.997,1.623-1.562c1.752,1.543,4.014,3.197,5.815,3.388
		c0.027,0.002,0.052,0.004,0.078,0.004c0.377,0,0.701-0.285,0.742-0.668C33.828,24.297,33.264,24.689,32.854,24.648z"/>
</g>
<g>
</g>
<g>
</g>
<g>
</g>
<g>
</g>
<g>
</g>
<g>
</g>
<g>
</g>
<g>
</g>
<g>
</g>
<g>
</g>
<g>
</g>
<g>
</g>
<g>
</g>
<g>
</g>
<g>
</g>
</svg>
