<?xml version="1.0" encoding="iso-8859-1"?>
<!-- Generator: Adobe Illustrator 16.0.0, SVG Export Plug-In . SVG Version: 6.00 Build 0)  -->
<!DOCTYPE svg PUBLIC "-//W3C//DTD SVG 1.1//EN" "http://www.w3.org/Graphics/SVG/1.1/DTD/svg11.dtd">
<svg version="1.1" id="Capa_1" xmlns="http://www.w3.org/2000/svg" xmlns:xlink="http://www.w3.org/1999/xlink" x="0px" y="0px"
	 width="32px" height="32px" viewBox="0 0 32 32" style="enable-background:new 0 0 32 32;" xml:space="preserve">
<g>
	<path d="M32,14.824c-3.197,5.81-6.949,5.456-6.949,5.456s7.333-3.475,5.309-9.536c-0.77,4.613-4.938,7.245-4.938,7.245
		s0.014-0.508,0.076-0.914s2.406-4.344,2.719-5.156c0.312-0.812,1.566-4.368,0.146-4.679c0.664-4.612-2.174-6.165-2.174-6.165
		s1.242,3.771,0.178,3.946c-1.064,0.179-0.844-0.31-2.705-2.351c-0.889,0.312,1.375,3.814,1.375,3.814s-1.51,2.307,0.62,6.432
		c-0.755-0.621-1.134-0.178-1.604-0.026c-0.47,0.15-0.658,0.292-1.322,0.426c-0.666,0.134-3.549-1.642-3.549-1.642l0.898-1.212
		c0.049,0.013,0.096,0.03,0.148,0.03c0.323,0,0.588-0.265,0.588-0.588c0-0.325-0.265-0.588-0.588-0.588
		c-0.324,0-0.588,0.263-0.588,0.588c0,0.083,0.018,0.16,0.047,0.23l-1.57,1.493c0,0-1.09-0.337-2.152-0.337
		c-1.062,0-2.084,0.337-2.084,0.337l-1.571-1.491c0.03-0.07,0.048-0.147,0.048-0.23c0-0.325-0.264-0.588-0.588-0.588
		c-0.325,0-0.588,0.263-0.588,0.588c0,0.323,0.263,0.588,0.588,0.588c0.053,0,0.1-0.019,0.148-0.03l0.898,1.212
		c0,0-2.883,1.774-3.548,1.642c-0.665-0.134-0.854-0.274-1.323-0.426c-0.471-0.15-0.85-0.595-1.604,0.026
		c2.129-4.126,0.62-6.433,0.62-6.433s2.263-3.504,1.375-3.814C6.476,4.713,6.697,5.2,5.633,5.022
		C4.568,4.846,5.811,1.075,5.811,1.075S2.972,2.628,3.637,7.24c-1.419,0.311-0.608,3.146-0.171,4.304
		c0.437,1.158,3.031,5.719,3.031,5.719l0.082,0.729c0,0-4.169-2.632-4.938-7.245c-2.024,6.062,5.309,9.536,5.309,9.536
		S3.197,20.634,0,14.824c0.137,1.668,0.133,4.036,2.839,5.61c2.705,1.574,6.697,2.24,6.697,2.24s-3.416,0.133-5.278,1.463
		c-1.863,1.33-1.464,3.814-1.464,3.814s0.399-1.907,1.952-2.972c1.552-1.064,7.451-1.286,7.451-1.286s-2.085,1.641-2.795,2.927
		c-0.709,1.286,0.932,4.304,0.932,4.304s0-3.104,0.443-4.037c0.443-0.932,3.992-2.396,3.992-2.396s0.56,0.08,1.036,0.103
		c0.06,0.006,0.123,0.006,0.194,0.006c0.071,0,0.135,0,0.194-0.006c0.477-0.021,1.035-0.103,1.035-0.103s3.549,1.464,3.992,2.396
		c0.443,0.934,0.443,4.037,0.443,4.037s1.641-3.018,0.932-4.304s-2.795-2.927-2.795-2.927s5.899,0.222,7.451,1.286
		c1.553,1.062,1.952,2.972,1.952,2.972s0.399-2.484-1.464-3.814c-1.862-1.33-5.278-1.463-5.278-1.463s3.992-0.666,6.697-2.24
		C31.867,18.86,31.863,16.492,32,14.824z"/>
</g>
<g>
</g>
<g>
</g>
<g>
</g>
<g>
</g>
<g>
</g>
<g>
</g>
<g>
</g>
<g>
</g>
<g>
</g>
<g>
</g>
<g>
</g>
<g>
</g>
<g>
</g>
<g>
</g>
<g>
</g>
</svg>
