<?xml version="1.0" encoding="iso-8859-1"?>
<!-- Generator: Adobe Illustrator 16.0.0, SVG Export Plug-In . SVG Version: 6.00 Build 0)  -->
<!DOCTYPE svg PUBLIC "-//W3C//DTD SVG 1.1//EN" "http://www.w3.org/Graphics/SVG/1.1/DTD/svg11.dtd">
<svg version="1.1" id="Capa_1" xmlns="http://www.w3.org/2000/svg" xmlns:xlink="http://www.w3.org/1999/xlink" x="0px" y="0px"
	 width="32.003px" height="32.003px" viewBox="0 0 32.003 32.003" style="enable-background:new 0 0 32.003 32.003;"
	 xml:space="preserve">
<g>
	<path d="M28.201,20.628c0.938-1.093,2.719-0.001,2.94,2.587c2.125-6.944-7.44-7.334-5.28-9.603
		c1.984,2.977,6.128,2.516,5.811,0.071c-1.629,1.134-2.086,1.199-2.666,0.346c-0.58-0.855,2.063-2.791,1.889-3.464
		c-0.178-0.673-1.71-0.546-1.657-1.095c0.054-0.55,0.968,0.332,1.276,0.146c0.309-0.187,0.638-0.732,0.345-0.93
		c-5.985-7.938-7.299-7.701-10.485-8.339c-3.188-0.638-8.397-0.803-10.632,3.201c-2.445,5.386-3.082,7.157-8.787,7.37
		c2.125,4.287,9.035-2.374,9.035-2.374s-3.439,7.229-9.675,5.28c5.279,7.194,12.083-4.038,12.827-4.463
		c-2.445,5.385,2.161,8.08,2.867,12.367c0.783,0.069,0.96-3.014,1.313-2.162c2.8,3.332,4.818,2.978,4.818,2.978
		s-1.312-2.339,0.213-2.339c4.394-0.07,3.649,7.725,3.083,11.799C31.708,28.39,27.774,21.549,28.201,20.628 M24.975,6.295
		c-0.443,0.532-2.037,0.418-2.037,0.418s1.133-2.047,1.824-1.87C25.453,5.02,25.417,5.764,24.975,6.295z"/>
</g>
<g>
</g>
<g>
</g>
<g>
</g>
<g>
</g>
<g>
</g>
<g>
</g>
<g>
</g>
<g>
</g>
<g>
</g>
<g>
</g>
<g>
</g>
<g>
</g>
<g>
</g>
<g>
</g>
<g>
</g>
</svg>
