<?xml version="1.0" encoding="iso-8859-1"?>
<!-- Generator: Adobe Illustrator 16.0.0, SVG Export Plug-In . SVG Version: 6.00 Build 0)  -->
<!DOCTYPE svg PUBLIC "-//W3C//DTD SVG 1.1//EN" "http://www.w3.org/Graphics/SVG/1.1/DTD/svg11.dtd">
<svg version="1.1" id="Capa_1" xmlns="http://www.w3.org/2000/svg" xmlns:xlink="http://www.w3.org/1999/xlink" x="0px" y="0px"
	 width="32px" height="32px" viewBox="0 0 32 32" style="enable-background:new 0 0 32 32;" xml:space="preserve">
<g>
	<g>
		<path d="M28.411,8.186l-0.015,0.002c-1.229,0.085-2.45,0.226-3.67,0.404c-1.22,0.187-2.437,0.412-3.64,0.764
			c1.246,0.145,2.482,0.162,3.715,0.141c0.724-0.018,1.443-0.054,2.162-0.1c-0.373,0.356-0.76,0.699-1.116,1.074
			c-0.72,0.746-1.421,1.514-2.056,2.354c0.916-0.522,1.767-1.121,2.598-1.739c0.833-0.615,1.632-1.271,2.414-1.944
			c0.123-0.108,0.199-0.273,0.188-0.45C28.97,8.391,28.712,8.165,28.411,8.186z"/>
		<path d="M20.693,9.044c0,0,1.783-5.968,8.907-8.698c-2.705-0.919-5.205,0.111-7.25,1.708c0.385,0.312,0.861,0.774,0.645,1.014
			c-0.289-0.313-0.847-0.442-1.271-0.498c-0.265,0.23-0.517,0.467-0.761,0.708c0.395,0.301,1.021,0.848,0.775,1.116
			c-0.311-0.335-0.932-0.462-1.363-0.511c-0.205,0.22-0.398,0.441-0.588,0.661c0.334,0.24,1.221,0.923,0.938,1.235
			c-0.354-0.381-1.103-0.492-1.521-0.525c-0.207,0.263-0.397,0.518-0.578,0.765c0.232,0.162,1.328,0.951,1.018,1.293
			c-0.362-0.391-1.141-0.498-1.555-0.528c-0.658,0.976-1.024,1.658-1.024,1.658h-1.064h-1.064c0,0-0.382-0.711-1.065-1.717
			c-0.426,0.086-1.063,0.27-1.351,0.646c-0.326-0.297,0.577-1.115,0.853-1.353c-0.176-0.24-0.363-0.49-0.564-0.746
			c-0.406,0.068-1.187,0.248-1.515,0.676c-0.363-0.33,0.798-1.308,0.915-1.404c-0.16-0.188-0.324-0.375-0.496-0.563
			c-0.391,0.061-1.22,0.239-1.559,0.683c-0.339-0.308,0.657-1.186,0.886-1.38c-0.18-0.178-0.364-0.353-0.554-0.524
			c-0.265,0.031-1.314,0.189-1.707,0.703C8.436,3.147,9.479,2.241,9.676,2.075c-2.05-1.608-4.559-2.653-7.277-1.729
			c7.124,2.73,8.907,8.698,8.907,8.698s-0.147,0.149-0.354,0.404C9.766,9.104,8.567,8.88,7.366,8.696
			c-1.22-0.179-2.442-0.318-3.67-0.404L3.68,8.291C3.516,8.28,3.349,8.345,3.232,8.479C3.037,8.706,3.062,9.05,3.29,9.246
			c0.782,0.675,1.581,1.329,2.415,1.945c0.831,0.618,1.681,1.216,2.596,1.739c-0.635-0.842-1.335-1.608-2.054-2.355
			C5.888,10.2,5.502,9.857,5.128,9.501c0.719,0.047,1.439,0.083,2.161,0.1c1.21,0.022,2.424,0.003,3.648-0.135
			c-0.461,0.572-1.233,1.704-1.565,3.243c-1.11,4.129,2.603,5.646,3.296,7.715c0.694,2.069,0.969,6.103,1.572,6.431
			c0.603,0.33,0.926,3.256,0.77,4.437c0.503-0.417,0.312-4.615,0.503-4.372C15.705,27.161,15.982,32,15.982,32
			s0.007-0.131,0.018-0.337C16.01,31.869,16.018,32,16.018,32s0.277-4.84,0.468-5.083c0.189-0.243,0,3.955,0.503,4.372
			c-0.155-1.18,0.276-4.243,0.878-4.591c0.604-0.349,0.771-4.205,1.465-6.274c0.692-2.069,4.404-3.586,3.295-7.715
			C22.142,10.454,20.693,9.044,20.693,9.044z M12.007,18.753c0,0-2.04-2.107-2.047-2.545c-0.087-0.226,1.855-0.1,2.167,0.524
			C12.44,17.357,12.007,18.753,12.007,18.753z M19.992,18.753c0,0-0.522-1.341-0.212-1.965c0.312-0.625,2.348-0.806,2.26-0.58
			C22.031,16.646,19.992,18.753,19.992,18.753z"/>
	</g>
</g>
<g>
</g>
<g>
</g>
<g>
</g>
<g>
</g>
<g>
</g>
<g>
</g>
<g>
</g>
<g>
</g>
<g>
</g>
<g>
</g>
<g>
</g>
<g>
</g>
<g>
</g>
<g>
</g>
<g>
</g>
</svg>
