<?xml version="1.0" encoding="iso-8859-1"?>
<!-- Generator: Adobe Illustrator 16.0.0, SVG Export Plug-In . SVG Version: 6.00 Build 0)  -->
<!DOCTYPE svg PUBLIC "-//W3C//DTD SVG 1.1//EN" "http://www.w3.org/Graphics/SVG/1.1/DTD/svg11.dtd">
<svg version="1.1" id="Capa_1" xmlns="http://www.w3.org/2000/svg" xmlns:xlink="http://www.w3.org/1999/xlink" x="0px" y="0px"
	 width="29.646px" height="29.646px" viewBox="0 0 29.646 29.646" style="enable-background:new 0 0 29.646 29.646;"
	 xml:space="preserve">
<g>
	<g>
		<path d="M11.224,20.528c2.415,1.86,8.877,0.021,8.499-4.793c-0.305-2.807-4.353-2.006-4.454-0.792
			c1.238,0.833,1.486,2.513-0.144,2.552c-1.63,0.037-2.502-1.973-2.236-3.603c0.265-1.631,4.061-3.645,7.549-0.725
			c0.645-0.38,4.914-2.185,6.382-1.638C26.216,10.527,16.806,0.525,9.78,6.613C3.43,12.484,8.809,18.666,11.224,20.528z"/>
		<path d="M24.54,19.996c0.117-0.963,2.111,0,3.627,0c1.519,0,1.479-1.328,1.479-2.502c0-1.176-1.365-4.475-2.541-5.193
			c-1.175-0.721-5.486,0.876-6.331,1.593c1.197,5.467-3.484,8.893-8.229,8.492c-4.742-0.4-6.405-8.721-9.742-7.925
			c-3.066,0.731-2.834,9.112-2.776,10.465H0.025c-0.002,0.019-0.003,0.041-0.004,0.06h23.914
			C24.12,23.453,24.457,20.684,24.54,19.996z M26.133,14.221c0.477,0,0.859,0.282,0.859,0.633c0,0.349-0.384,0.632-0.859,0.632
			c-0.474,0-0.856-0.283-0.856-0.632C25.275,14.503,25.659,14.221,26.133,14.221z"/>
	</g>
</g>
<g>
</g>
<g>
</g>
<g>
</g>
<g>
</g>
<g>
</g>
<g>
</g>
<g>
</g>
<g>
</g>
<g>
</g>
<g>
</g>
<g>
</g>
<g>
</g>
<g>
</g>
<g>
</g>
<g>
</g>
</svg>
