<?xml version="1.0" encoding="iso-8859-1"?>
<!-- Generator: Adobe Illustrator 16.0.0, SVG Export Plug-In . SVG Version: 6.00 Build 0)  -->
<!DOCTYPE svg PUBLIC "-//W3C//DTD SVG 1.1//EN" "http://www.w3.org/Graphics/SVG/1.1/DTD/svg11.dtd">
<svg version="1.1" id="Capa_1" xmlns="http://www.w3.org/2000/svg" xmlns:xlink="http://www.w3.org/1999/xlink" x="0px" y="0px"
	 width="31.998px" height="31.998px" viewBox="0 0 31.998 31.998" style="enable-background:new 0 0 31.998 31.998;"
	 xml:space="preserve">
<g>
	<g>
		<circle cx="20.037" cy="10.325" r="2.835"/>
		<path d="M10.753,15.12c6.591,6.896,13.768,1.14,14.657,0.218c1.828-2.213,1.976-7.776-0.2-10.542
			c0.494,9.424-4.468,10.732-7.785,8.475c-4.125-3.212,1.054-9.82,6.271-5.425c0.061-1.267,0.379-6.664-0.188-7.23
			C14.155-2.715,4.162,8.224,10.753,15.12z"/>
		<path d="M25.47,3.214c0.957,0.62,3.427,5.268,2.223,9.945c-0.805,2.527-3.543,6.637-10.844,6.306
			c-7.725-0.282-13.15-8.423-6.692-16.007c-0.78,0.496-9.962,3.322-9.962,3.322v22.324c0,0,9.142-3.545,10.914-6.166
			c0,1.418-0.071,4.961,0.709,6.449c0.778,1.486,4.96,3.399,5.922,2.268c0.961-1.135,5.133-7.441,5.133-7.441
			s2.551-1.204,3.979-5.583C30.015,16.915,36.88,8.812,25.47,3.214z"/>
	</g>
</g>
<g>
</g>
<g>
</g>
<g>
</g>
<g>
</g>
<g>
</g>
<g>
</g>
<g>
</g>
<g>
</g>
<g>
</g>
<g>
</g>
<g>
</g>
<g>
</g>
<g>
</g>
<g>
</g>
<g>
</g>
</svg>
