<?xml version="1.0" encoding="iso-8859-1"?>
<!-- Generator: Adobe Illustrator 16.0.0, SVG Export Plug-In . SVG Version: 6.00 Build 0)  -->
<!DOCTYPE svg PUBLIC "-//W3C//DTD SVG 1.1//EN" "http://www.w3.org/Graphics/SVG/1.1/DTD/svg11.dtd">
<svg version="1.1" id="Capa_1" xmlns="http://www.w3.org/2000/svg" xmlns:xlink="http://www.w3.org/1999/xlink" x="0px" y="0px"
	 width="32px" height="32px" viewBox="0 0 32 32" style="enable-background:new 0 0 32 32;" xml:space="preserve">
<g>
	<path d="M31.049,6.612c-3.828-9.756-11.486,1.941-12.273,1.941c-0.521,0-1.713,0-2.457,0c-0.375,0-0.638,0-0.638,0
		c-0.743,0-1.934,0-2.456,0c-0.786,0-8.444-11.697-12.273-1.941c-3.829,9.756,5.141,10.596,5.141,10.596s-4.459-4.459-2.466-7.24
		c1.993-2.779,6.714,2.151,6.714,2.151s-2.36,4.091-1.573,5.56s2.622,1.206,2.989,2.413c0.367,1.205,0.521,6.43,0.521,6.43
		c0.163,0.404,1.195,2.433,3.624,2.749c0.025,0.004,0.051,0.002,0.076,0.001c0.008,0.001,0.016-0.001,0.023,0
		c0.008-0.001,0.016,0.001,0.022,0c0.025,0.001,0.052,0.003,0.076-0.001c2.428-0.316,3.461-2.345,3.624-2.749
		c0,0,0.153-5.225,0.521-6.43c0.366-1.207,2.2-0.944,2.987-2.413s-1.571-5.56-1.571-5.56s4.721-4.931,6.714-2.151
		c1.993,2.78-2.466,7.239-2.466,7.239S34.878,16.368,31.049,6.612z"/>
</g>
<g>
</g>
<g>
</g>
<g>
</g>
<g>
</g>
<g>
</g>
<g>
</g>
<g>
</g>
<g>
</g>
<g>
</g>
<g>
</g>
<g>
</g>
<g>
</g>
<g>
</g>
<g>
</g>
<g>
</g>
</svg>
