<?xml version="1.0" encoding="iso-8859-1"?>
<!-- Generator: Adobe Illustrator 16.0.0, SVG Export Plug-In . SVG Version: 6.00 Build 0)  -->
<!DOCTYPE svg PUBLIC "-//W3C//DTD SVG 1.1//EN" "http://www.w3.org/Graphics/SVG/1.1/DTD/svg11.dtd">
<svg version="1.1" id="Capa_1" xmlns="http://www.w3.org/2000/svg" xmlns:xlink="http://www.w3.org/1999/xlink" x="0px" y="0px"
	 width="32.001px" height="32.001px" viewBox="0 0 32.001 32.001" style="enable-background:new 0 0 32.001 32.001;"
	 xml:space="preserve">
<g>
	<path d="M25.225,12.126c0,0,0.674-2.593,0-3.699c-0.672-1.104-4.611-2.931-4.611-2.931s1.826-4.085-3.938-4.373
		c3.173,1.683,2.21,3.604,2.21,3.604l-3.748,1.25c0,0-1.537-3.987-9.032-4.469c4.229,0.24,7.742,0.421,9.519,3.352
		c0.935-0.29,1.31-0.635,2.3-0.827c-0.251-2.276-3.241-3.223-4.375-3.486c-1.135-0.265-7.494-1.184-9.495,0.355
		C3.14,1.335,0.195,5.35,0.179,7.465C0.16,9.58,0,25.432,0,26.682s1.539,5.286,2.548,5.286c1.009,0,12.395,0,15.038,0
		c1.538-0.047-11.818-15.498-5.236-19.603c-3.557,6.102,4.083,13.454,5.38,14.51c1.297,1.057,5.621,1.538,6.196,1.441
		c0.576-0.098,2.308-3.604,2.308-4.036s-3.699-2.597-3.987-2.979s-3.442,0.321-3.442-1.072c0-1.395,3.01-2.098,4.163-1.714
		c1.153,0.385,4.035,2.931,4.708,2.979c0.674,0.049,4.178-4.324,4.323-5.382C32.145,15.056,25.225,12.126,25.225,12.126z
		 M10.295,11.107c-0.229,0.134-0.504,0.3-0.779,0.536c-0.286,0.224-0.549,0.53-0.813,0.861c-0.228,0.357-0.453,0.753-0.552,1.217
		C8.015,14.173,8.029,14.683,8.06,15.2c0.057,0.521,0.203,1.056,0.386,1.595c0.18,0.585,0.363,1.178,0.547,1.771
		c0.194,0.573,0.263,1.239,0.393,1.847c0.141,0.62,0.167,1.229,0.221,1.814c0.067,0.584,0.081,1.15,0.069,1.688
		c0.008,0.538,0,1.047-0.045,1.513c-0.047,0.936-0.192,1.706-0.271,2.242c-0.098,0.535-0.182,0.837-0.182,0.837
		s-0.016-0.311-0.042-0.853c-0.021-0.54-0.086-1.309-0.167-2.222c-0.09-0.91-0.178-1.977-0.372-3.094
		c-0.078-0.562-0.172-1.142-0.302-1.706c-0.139-0.574-0.195-1.146-0.406-1.738c-0.168-0.587-0.334-1.175-0.499-1.752
		c-0.2-0.612-0.306-1.251-0.34-1.88c-0.012-0.631,0.06-1.257,0.284-1.805c0.182-0.563,0.533-1.014,0.866-1.382
		c0.715-0.715,1.491-1.005,2.007-1.179c0.529-0.16,0.845-0.17,0.845-0.17S10.757,10.841,10.295,11.107z M8.962,8.351
		C8.298,8.654,7.53,9.039,6.874,9.583C6.55,9.854,6.248,10.167,6.05,10.515c-0.135,0.161-0.157,0.365-0.25,0.541
		c-0.031,0.214-0.072,0.35-0.097,0.626c-0.048,0.481-0.124,1.032-0.223,1.523c-0.086,0.501-0.23,0.979-0.36,1.44
		c-0.272,0.923-0.609,1.757-0.958,2.442c-0.341,0.688-0.7,1.229-1,1.573c-0.148,0.175-0.295,0.287-0.395,0.354
		c-0.113,0.049-0.173,0.072-0.173,0.072s0.045-0.041,0.131-0.119c0.072-0.095,0.152-0.24,0.244-0.435
		c0.178-0.393,0.372-0.979,0.577-1.689c0.196-0.713,0.404-1.549,0.589-2.448c0.097-0.449,0.169-0.918,0.249-1.389
		c0.082-0.479,0.13-0.924,0.171-1.438c0.025-0.223,0.096-0.578,0.162-0.853c0.127-0.268,0.206-0.571,0.391-0.796
		c0.303-0.506,0.745-0.852,1.157-1.153C6.687,8.472,7.13,8.273,7.548,8.098c0.421-0.165,0.828-0.282,1.204-0.372
		c1.514-0.351,2.54-0.263,2.54-0.263S10.311,7.764,8.962,8.351z"/>
</g>
<g>
</g>
<g>
</g>
<g>
</g>
<g>
</g>
<g>
</g>
<g>
</g>
<g>
</g>
<g>
</g>
<g>
</g>
<g>
</g>
<g>
</g>
<g>
</g>
<g>
</g>
<g>
</g>
<g>
</g>
</svg>
