<?xml version="1.0" encoding="iso-8859-1"?>
<!-- Generator: Adobe Illustrator 16.0.0, SVG Export Plug-In . SVG Version: 6.00 Build 0)  -->
<!DOCTYPE svg PUBLIC "-//W3C//DTD SVG 1.1//EN" "http://www.w3.org/Graphics/SVG/1.1/DTD/svg11.dtd">
<svg version="1.1" id="Capa_1" xmlns="http://www.w3.org/2000/svg" xmlns:xlink="http://www.w3.org/1999/xlink" x="0px" y="0px"
	 width="31.93px" height="31.93px" viewBox="0 0 31.93 31.93" style="enable-background:new 0 0 31.93 31.93;" xml:space="preserve"
	>
<g>
	<path d="M25.604,21.114c0.563-0.738,1.812-2.555,3.051-2.4c1.242,0.15,3.104,0.062,3.268-1.894
		c0.166-1.949-2.275-2.522-2.381-2.771c-0.045-0.112-0.205-0.762-0.432-1.465c0.475-0.44,0.771-1.063,0.771-1.758
		c0-1.333-1.082-2.414-2.414-2.414c-0.312,0-0.611,0.063-0.889,0.174c-0.369-0.86-1.225-1.464-2.221-1.464
		c-0.959,0-1.779,0.563-2.17,1.375c-0.467-0.527-1.142-0.866-1.898-0.866c-1.404,0-2.545,1.139-2.545,2.545
		c0,0.169,0.02,0.334,0.051,0.494c-1.295,0.043-2.334,1.101-2.334,2.406c0,0.687,0.287,1.301,0.746,1.739
		c-0.646,0.435-1.072,1.17-1.072,2.005c0,1.188,0.859,2.172,1.99,2.372c-0.637,1.115-9.938-2.372-12.938,0.521
		c-0.133-1.062,5.836-5.364,5.869-7.217C9.982,9.778,8.279,8.606,5.639,7.451C1.686,5.919,1.467,8.716,0,9.387
		c1.061,0.3,2.611,2.02,5.094-0.143c0.537-0.069,2.68,0.705,3.076,2.624c0.396,1.918-5.873,4.218-6.234,7.882
		c-0.195,1.974,0.473,3.041,1.207,5.182h20.923C24.381,23.153,24.947,21.978,25.604,21.114z M26.195,12.979
		c0.641,0,1.158,0.375,1.158,0.838c0,0.461-0.521,0.836-1.158,0.836c-0.639,0-1.158-0.375-1.158-0.836
		C25.037,13.354,25.557,12.979,26.195,12.979z"/>
</g>
<g>
</g>
<g>
</g>
<g>
</g>
<g>
</g>
<g>
</g>
<g>
</g>
<g>
</g>
<g>
</g>
<g>
</g>
<g>
</g>
<g>
</g>
<g>
</g>
<g>
</g>
<g>
</g>
<g>
</g>
</svg>
