<?xml version="1.0" encoding="iso-8859-1"?>
<!-- Generator: Adobe Illustrator 16.0.0, SVG Export Plug-In . SVG Version: 6.00 Build 0)  -->
<!DOCTYPE svg PUBLIC "-//W3C//DTD SVG 1.1//EN" "http://www.w3.org/Graphics/SVG/1.1/DTD/svg11.dtd">
<svg version="1.1" id="Capa_1" xmlns="http://www.w3.org/2000/svg" xmlns:xlink="http://www.w3.org/1999/xlink" x="0px" y="0px"
	 width="32.001px" height="32px" viewBox="0 0 32.001 32" style="enable-background:new 0 0 32.001 32;" xml:space="preserve">
<g>
	<path d="M31.547,21.565l-5.094-11.222c0.931-0.351,1.414-0.962,1.766-1.494c0.354-0.537,0.54-1.044,0.672-1.457
		c0.252-0.834,0.271-1.323,0.271-1.323s-0.237,0.433-0.735,1.085c-0.243,0.325-0.573,0.695-0.97,1.045
		c-0.389,0.342-0.928,0.641-1.377,0.688l-0.146,0.02l-0.276-0.006l-0.142-0.004c0.104-0.005-0.053-0.01-0.065-0.015l-0.285-0.032
		c-0.386-0.033-0.782-0.066-1.188-0.102c-0.816-0.066-1.679-0.145-2.568-0.176c-1.422-0.081-2.922-0.123-4.434-0.14
		c-0.156-0.763-0.457-1.339-0.824-1.566c0-0.01,0.002-0.018,0.002-0.027c0-0.425-0.154-0.771-0.344-0.771s-0.344,0.346-0.344,0.771
		c0,0.01,0.002,0.018,0.002,0.028c-0.366,0.228-0.667,0.804-0.823,1.566c-1.5,0.02-2.991,0.063-4.401,0.142
		C9.353,8.607,8.491,8.689,7.674,8.751c-0.888,0.062-1.43,0.16-1.996,0.016c-1.138-0.273-2.013-1.121-2.56-1.71
		C2.568,6.452,2.257,6.04,2.239,6.069c0,0,0.06,0.11,0.117,0.324c0.069,0.215,0.15,0.545,0.324,0.94
		C2.85,7.729,3.076,8.22,3.458,8.727c0.375,0.504,0.904,1.061,1.679,1.438c0.13,0.065,0.276,0.119,0.42,0.174L0.668,21.565H0
		c0,0,0.382,4.368,6.17,4.368c5.789,0,6.171-4.368,6.171-4.368h-0.453L6.93,10.643c0.25,0.022,0.474,0.031,0.745,0.06
		c0.816,0.063,1.678,0.146,2.569,0.176c1.425,0.079,2.932,0.124,4.448,0.144c0.219,0.884,0.635,1.491,1.118,1.491
		s0.898-0.605,1.118-1.49c1.527-0.017,3.044-0.059,4.479-0.141c0.891-0.032,1.752-0.11,2.567-0.177
		c0.385-0.032,0.76-0.064,1.123-0.096l-4.771,10.956H19.66c0,0,0.382,4.368,6.17,4.368c5.789,0,6.171-4.368,6.171-4.368H31.547z
		 M5.679,12.519v9.046H1.74L5.679,12.519z M6.662,21.565v-9.137l4.146,9.137H6.662z M26.32,12.428l4.146,9.137H26.32V12.428z
		 M25.338,12.519v9.046h-3.939L25.338,12.519z"/>
</g>
<g>
</g>
<g>
</g>
<g>
</g>
<g>
</g>
<g>
</g>
<g>
</g>
<g>
</g>
<g>
</g>
<g>
</g>
<g>
</g>
<g>
</g>
<g>
</g>
<g>
</g>
<g>
</g>
<g>
</g>
</svg>
