<?xml version="1.0" encoding="iso-8859-1"?>
<!-- Generator: Adobe Illustrator 16.0.0, SVG Export Plug-In . SVG Version: 6.00 Build 0)  -->
<!DOCTYPE svg PUBLIC "-//W3C//DTD SVG 1.1//EN" "http://www.w3.org/Graphics/SVG/1.1/DTD/svg11.dtd">
<svg version="1.1" id="Capa_1" xmlns="http://www.w3.org/2000/svg" xmlns:xlink="http://www.w3.org/1999/xlink" x="0px" y="0px"
	 width="32px" height="32px" viewBox="0 0 32 32" style="enable-background:new 0 0 32 32;" xml:space="preserve">
<g>
	<g>
		<path d="M21.588,18.223c-3.17-0.032-8.963,2.625-10.396,2.013c-1.432-0.613-0.238-6.169-5.965-5.862
			c1.09,3.033-0.308,3.477-0.308,3.477s-1.942,1.639-4.533-2.861C-2.17,23.033,8.806,21.6,8.806,21.6s0.717,2.829,5.012,3.374
			c0.328,0.224,0.877,2.275,1.154,2.632c0.277,0.357,2.9-0.107,2.9-0.107s1.566-0.068,1.604-1.466
			c4.67,0.58,9.82-3.749,10.025-4.567c0.203-0.818-0.055-1.057-0.055-1.057S24.758,18.257,21.588,18.223z M24.11,23.249
			c-0.642,0-1.158-0.484-1.158-1.083s0.521-1.084,1.158-1.084c0.641,0,1.16,0.485,1.16,1.084S24.751,23.249,24.11,23.249z"/>
		<path d="M23.194,10.401c0,0-0.715-2.829-5.01-3.374c-0.33-0.223-0.877-2.275-1.154-2.633c-0.277-0.356-2.902,0.109-2.902,0.109
			s-1.568,0.068-1.602,1.466C7.856,5.389,2.705,9.718,2.5,10.536c-0.205,0.819,0.054,1.058,0.054,1.058s4.689,2.147,7.86,2.183
			c3.17,0.033,8.963-2.625,10.396-2.012c1.432,0.613,0.237,6.168,5.965,5.862c-1.091-3.033,0.307-3.476,0.307-3.476
			s1.943-1.638,4.533,2.861C34.17,8.969,23.194,10.401,23.194,10.401z M7.891,10.917c-0.641,0-1.158-0.485-1.158-1.084
			c0-0.599,0.518-1.083,1.158-1.083c0.64,0,1.159,0.484,1.159,1.083C9.049,10.431,8.53,10.917,7.891,10.917z"/>
	</g>
</g>
<g>
</g>
<g>
</g>
<g>
</g>
<g>
</g>
<g>
</g>
<g>
</g>
<g>
</g>
<g>
</g>
<g>
</g>
<g>
</g>
<g>
</g>
<g>
</g>
<g>
</g>
<g>
</g>
<g>
</g>
</svg>
