<?xml version="1.0" encoding="iso-8859-1"?>
<!-- Generator: Adobe Illustrator 16.0.0, SVG Export Plug-In . SVG Version: 6.00 Build 0)  -->
<!DOCTYPE svg PUBLIC "-//W3C//DTD SVG 1.1//EN" "http://www.w3.org/Graphics/SVG/1.1/DTD/svg11.dtd">
<svg version="1.1" id="Capa_1" xmlns="http://www.w3.org/2000/svg" xmlns:xlink="http://www.w3.org/1999/xlink" x="0px" y="0px"
	 width="31.998px" height="31.998px" viewBox="0 0 31.998 31.998" style="enable-background:new 0 0 31.998 31.998;"
	 xml:space="preserve">
<g>
	<g>
		<path d="M6.588,20.578c-0.359-2.463-0.402-5.328-0.402-5.328s1.878-3.225,3.895-3.939c0.672-0.136-1.911,2.238-0.806,2.462
			c1.104,0.225,4.655-2.776,5.64-2.867c0.986-0.088,4.03,1.075,6.896,0.584c2.865-0.493,8.148-5.238,8.104-5.865
			c-0.046-0.627-2.417,0.672-2.417,0.672s1.699-2.06,1.208-3.134c-0.494-1.076-8.554-1.973-10.564-1.927
			c-2.017-3.537-7.117,1.617-7.346,1.835c-0.226,0.22,2.093-0.123,2.093,0.236c0,0.357-5.227,4.778-6.211,7.51
			c-0.984,2.732-3.313,4.252-6.088,3.089c-1.522,2.955,3.671,2.955,3.671,2.955S4.708,21.068,6.588,20.578z M25.415,3.295
			c0.382,0,0.692,0.311,0.692,0.695c0,0.382-0.312,0.694-0.692,0.694c-0.385,0-0.693-0.313-0.693-0.694
			C24.721,3.605,25.03,3.295,25.415,3.295z"/>
		<path d="M27.739,15.139c0,0-0.448-4.207-2.328-3.716c0.356,2.462,0.401,5.33,0.401,5.33s-1.881,3.224-3.896,3.938
			c-0.672,0.134,1.911-2.239,0.808-2.464c-1.105-0.224-4.658,2.774-5.644,2.864c-0.984,0.091-4.028-1.072-6.893-0.582
			c-2.867,0.492-8.149,5.238-8.104,5.865C2.127,27.001,4.5,25.702,4.5,25.702S2.8,27.763,3.292,28.835
			c0.491,1.076,8.55,1.974,10.565,1.928c2.015,3.535,7.117-1.617,7.342-1.836c0.228-0.219-2.094,0.123-2.094-0.235
			c0-0.357,5.228-4.777,6.211-7.51c0.986-2.73,3.312-4.252,6.091-3.091C32.934,15.139,27.739,15.139,27.739,15.139z M6.584,28.705
			c-0.384,0-0.694-0.312-0.694-0.695c0-0.383,0.311-0.691,0.694-0.691c0.383,0,0.695,0.312,0.695,0.691
			C7.28,28.395,6.968,28.705,6.584,28.705z"/>
	</g>
</g>
<g>
</g>
<g>
</g>
<g>
</g>
<g>
</g>
<g>
</g>
<g>
</g>
<g>
</g>
<g>
</g>
<g>
</g>
<g>
</g>
<g>
</g>
<g>
</g>
<g>
</g>
<g>
</g>
<g>
</g>
</svg>
