<?xml version="1.0" encoding="iso-8859-1"?>
<!-- Generator: Adobe Illustrator 16.0.0, SVG Export Plug-In . SVG Version: 6.00 Build 0)  -->
<!DOCTYPE svg PUBLIC "-//W3C//DTD SVG 1.1//EN" "http://www.w3.org/Graphics/SVG/1.1/DTD/svg11.dtd">
<svg version="1.1" id="Capa_1" xmlns="http://www.w3.org/2000/svg" xmlns:xlink="http://www.w3.org/1999/xlink" x="0px" y="0px"
	 width="32px" height="32px" viewBox="0 0 32 32" style="enable-background:new 0 0 32 32;" xml:space="preserve">
<g>
	<path d="M30.009,15.669l-4.303-1.396v1.065h-4.939c0.293-1.671,1.859-1.55,1.734-5.039C22.364,6.455,15.954,6.317,16.183,0
		c-0.033,0.047-0.06,0.091-0.092,0.137L16.114,0L4.553,14.442l-2.562-0.268l1.282,1.74l-1.245,1.711l2.771-0.38L16.183,32
		l0.042-1.178c0.558-5.17,6.147-5.532,6.275-9.122c0.138-3.847-1.784-3.296-1.784-5.608c0-0.008,0-0.016,0-0.023h0.008
		c0-0.022-0.002-0.045-0.004-0.067h4.985v1.524L30.009,15.669z M14.998,2.956c-0.111,3.446,5.077,4.807,5.077,7.344
		c0,2.794-1.085,2.991-1.337,5.039H7.723l-0.925-0.661L5.54,14.546L14.998,2.956z M18.689,16.066
		c0.094,2.635,1.386,2.588,1.386,5.633c0,2.568-5.32,3.929-5.075,7.471L5.727,17.119l1.117-0.153L8.003,16h10.681
		c0,0.023-0.002,0.044-0.002,0.066H18.689z"/>
</g>
<g>
</g>
<g>
</g>
<g>
</g>
<g>
</g>
<g>
</g>
<g>
</g>
<g>
</g>
<g>
</g>
<g>
</g>
<g>
</g>
<g>
</g>
<g>
</g>
<g>
</g>
<g>
</g>
<g>
</g>
</svg>
