<?xml version="1.0" encoding="iso-8859-1"?>
<!-- Generator: Adobe Illustrator 16.0.0, SVG Export Plug-In . SVG Version: 6.00 Build 0)  -->
<!DOCTYPE svg PUBLIC "-//W3C//DTD SVG 1.1//EN" "http://www.w3.org/Graphics/SVG/1.1/DTD/svg11.dtd">
<svg version="1.1" id="Capa_1" xmlns="http://www.w3.org/2000/svg" xmlns:xlink="http://www.w3.org/1999/xlink" x="0px" y="0px"
	 width="32.014px" height="32.015px" viewBox="0 0 32.014 32.015" style="enable-background:new 0 0 32.014 32.015;"
	 xml:space="preserve">
<g>
	<path d="M26.221,19.171c-0.598,0.351-1.875,0.195-2.545,0.082c-0.678-2.23-3.086-4.378-6.35-5.369
		c-2.809-0.853-5.566-0.64-7.432,0.38c-0.777-0.737-2.298-1.653-4.521-0.654c0.928-0.537,2.344-2.831-0.732-3.905
		c1.563-0.684,2.393-2.783,1.27-4.541c0.829-0.097,1.184-1.271,1.184-1.271s2.186,2.98,4.968,1.076
		C9.427,4.479,9.183,3.844,9.183,3.844s3.661-1.318,10.596-0.862C14.162-3.69,6.766,2.918,6.766,2.918S4.579,1.891,4.657,4.562
		C4.111,4.45,0.862,6.383,2.845,9.733c-1.875,0.422-1.391,4.844,0.43,4.785c-0.305,2.559,3.112,3.633,4.339,3.88
		c0.089,0.643,0.334,1.285,0.704,1.907c-0.092,0.014-0.183,0.022-0.276,0.045c-1.901,0.402-4.201,2.079-4.759,4.8
		c-0.043,0.212,0.093,0.418,0.305,0.461c0.211,0.043,0.418-0.093,0.461-0.304c0.486-2.377,2.495-3.842,4.155-4.193
		c0.216-0.046,0.42-0.07,0.614-0.079c0.381,0.485,0.843,0.948,1.372,1.377c-1.35,0.264-3.282,1.158-4.406,4.7
		c-0.065,0.206,0.048,0.426,0.254,0.491c0.039,0.013,0.079,0.018,0.118,0.018c0.165,0,0.319-0.104,0.372-0.271
		c1.24-3.907,3.444-4.183,4.581-4.271c0.881,0.565,1.896,1.039,3.01,1.377c0.438,0.133,0.873,0.232,1.306,0.314
		c-0.864,1.317-1.093,3.589-0.513,5.501c0.063,0.206,0.28,0.323,0.487,0.261c0.207-0.062,0.323-0.28,0.261-0.487
		c-0.552-1.814-0.289-4.053,0.598-5.092c0.016-0.019,0.033-0.029,0.049-0.047c0.646,0.074,1.274,0.096,1.878,0.062
		c0.079,0.117,0.157,0.256,0.229,0.41c0.824,1.793,0.664,5.166,0.107,6.033c-0.117,0.184-0.064,0.423,0.115,0.539
		c0.065,0.043,0.139,0.063,0.211,0.063c0.129,0,0.256-0.063,0.328-0.182c0.74-1.146,0.836-4.85-0.055-6.779
		c-0.029-0.063-0.062-0.115-0.091-0.175c0.154-0.021,0.31-0.046,0.457-0.074c0.697,0.935,2.203,2.695,3.601,2.639
		c1.565,2.81,4.021,1.9,4.223,1.31c-1.01-0.561-1.59-1.711-1.59-1.711s0.945-1.495,2.363-1.234
		c-0.168-1.197-2.642-2.173-4.566,0.786c-0.934,0.401-2.307-0.992-3.15-2.017c1.668-0.531,2.912-1.561,3.346-2.981
		c0.154-0.513,0.188-1.039,0.125-1.569c0.676,0.021,1.74,0.061,2.188,0.077c-0.342,3.516,2.196,4.297,3.076,3.467
		c-1.271-0.684-1.074-2.441-1.074-2.441s1.172-0.537,2.312-0.345C30.551,20.195,29.2,17.954,26.221,19.171z"/>
</g>
<g>
</g>
<g>
</g>
<g>
</g>
<g>
</g>
<g>
</g>
<g>
</g>
<g>
</g>
<g>
</g>
<g>
</g>
<g>
</g>
<g>
</g>
<g>
</g>
<g>
</g>
<g>
</g>
<g>
</g>
</svg>
