<?xml version="1.0" encoding="iso-8859-1"?>
<!-- Generator: Adobe Illustrator 16.0.0, SVG Export Plug-In . SVG Version: 6.00 Build 0)  -->
<!DOCTYPE svg PUBLIC "-//W3C//DTD SVG 1.1//EN" "http://www.w3.org/Graphics/SVG/1.1/DTD/svg11.dtd">
<svg version="1.1" id="Capa_1" xmlns="http://www.w3.org/2000/svg" xmlns:xlink="http://www.w3.org/1999/xlink" x="0px" y="0px"
	 width="31.994px" height="31.994px" viewBox="0 0 31.994 31.994" style="enable-background:new 0 0 31.994 31.994;"
	 xml:space="preserve">
<g>
	<path d="M12.48,11.539c-0.609-0.554-3.646-3.475-6.007-3.99C5.746,5.79,4.888,5.747,4.888,5.747s1.373-3.26-4.032-3.089
		c3.369,1.634,2.697,2.041,2.23,3.175C1.162,6.34,2.028,8.872,1.626,9.351C1.226,9.83-0.26,10.338,0.04,11.238
		c0.301,0.9,3.432,1.244,3.947,1.459c1.973,0.771,0.771,3.99,1.415,5.189c0.644,1.201,0.901,3.99,0.901,3.99
		s-0.688,2.147-0.761,2.794c-0.131,0.854,0.008,1.441-0.1,2.042c-0.417,0.499-0.766,1.268-0.766,1.268l1.969,0.031
		c0,0,0.188-0.882,0-1.285c0.043-0.474,1.051-4.312,1.854-4.228c0.397-0.129,1.02,4.312,0.462,4.312
		c-0.67,0.215-0.729,1.327-0.729,1.327l1.771,0.027c0,0-0.057-0.885,0.297-0.953c0.258-0.516,0.136-2.131,0.119-2.333
		s-0.215-2.617-0.215-2.617s2.231-1.587,2.917-1.372c2.961,0.729,8.173-0.985,8.667-1.328c-0.289,0.1,1.071,2.917,1.028,3.389
		s-1.319,2.635-1.553,3.183c-0.715,0.396-0.25,1.193-0.25,1.193l1.598,0.044c0,0,0.02-0.899,0.291-0.903s0.519-1.762,0.857-2.314
		c0.34-0.556,1.631-2.503,1.029-2.731c-0.603-0.228,3.261,4.104,3.561,4.619c0.172,0.293,0.064,1.33-0.061,2.164
		c-0.438,0.262-0.196,1.139-0.196,1.139h1.244c0,0,0.077-0.794,0.325-0.893c0.063-0.177,0.188-0.522,0.188-0.522
		s-0.104-3.712-2.146-5.878c0.856-2.702-0.474-7.335-0.474-7.335s1.674,0.814,1.459,1.501c-0.215,1.89,1.287,1.401,1.158,3.306
		c-0.301,1.544,1.416,2.102,2.146,2.571c0-0.686-0.301-1.973-1.315-2.443c0.157-2.188-1.13-2.745-1.087-3.477
		c0.13-3.604-2.002-2.814-3.174-3.132c-1.066-0.729-10.248-0.215-10.248-0.215S13.521,12.052,12.48,11.539"/>
</g>
<g>
</g>
<g>
</g>
<g>
</g>
<g>
</g>
<g>
</g>
<g>
</g>
<g>
</g>
<g>
</g>
<g>
</g>
<g>
</g>
<g>
</g>
<g>
</g>
<g>
</g>
<g>
</g>
<g>
</g>
</svg>
