<?xml version="1.0" encoding="iso-8859-1"?>
<!-- Generator: Adobe Illustrator 16.0.0, SVG Export Plug-In . SVG Version: 6.00 Build 0)  -->
<!DOCTYPE svg PUBLIC "-//W3C//DTD SVG 1.1//EN" "http://www.w3.org/Graphics/SVG/1.1/DTD/svg11.dtd">
<svg version="1.1" id="Capa_1" xmlns="http://www.w3.org/2000/svg" xmlns:xlink="http://www.w3.org/1999/xlink" x="0px" y="0px"
	 width="32.016px" height="32.016px" viewBox="0 0 32.016 32.016" style="enable-background:new 0 0 32.016 32.016;"
	 xml:space="preserve">
<g>
	<path d="M18.691,13.282c-0.775-0.371-1.127-0.752-0.785-1.202c0.344-0.449,0.354-2.181-0.017-1.736
		c-0.369,0.445-0.375,0.25-0.969,0.656c-0.594,0.406-2.192-0.191-3.75,2.219c-1.558,2.41-0.495,5.573-1.978,5.463
		c-0.778-0.186-0.296-8.307,6.341-8.715c1.633-0.778,4.418-3.623,3.783-5.153c-0.294-1.524-2.818,1.779-2.707,0.853
		c0.11-0.928,2.735-2.073,2.59-2.851c-0.148-0.779-0.773-0.896-1.402-0.746c-0.631,0.148,0.592,0.745-0.459,1.08
		c-0.479,0.11-0.121-0.169-0.506-0.709c-0.385-0.541-2.669,0.815-2.669,0.815S16.81,0,15.14,0c0.623,3.982-5.504,4.664-5.504,4.664
		s-1.005-2.412,1.036-4.039C7.52,0.515,7.82,5.184,7.82,5.184S6.708,5.035,6.855,5.962c0.148,0.927,1.78,1.928,2.336,1.816
		c-3.448,5.711-1.52,14.462-1.52,14.462s2.521,5.748,2.67,9.085c0.297,2.151,3.561-1.409,3.561-1.409l1-1.668
		c0,0,10.122-5.605,10.27-9.092C25.32,15.671,19.466,13.652,18.691,13.282z M15.347,3.996c0.501-0.111,0.945,0,0.668,0.334
		c-0.278,0.334-2.295,1.441-2.295,1.441S14.847,4.107,15.347,3.996z"/>
</g>
<g>
</g>
<g>
</g>
<g>
</g>
<g>
</g>
<g>
</g>
<g>
</g>
<g>
</g>
<g>
</g>
<g>
</g>
<g>
</g>
<g>
</g>
<g>
</g>
<g>
</g>
<g>
</g>
<g>
</g>
</svg>
