<?xml version="1.0" encoding="iso-8859-1"?>
<!-- Generator: Adobe Illustrator 16.0.0, SVG Export Plug-In . SVG Version: 6.00 Build 0)  -->
<!DOCTYPE svg PUBLIC "-//W3C//DTD SVG 1.1//EN" "http://www.w3.org/Graphics/SVG/1.1/DTD/svg11.dtd">
<svg version="1.1" id="Capa_1" xmlns="http://www.w3.org/2000/svg" xmlns:xlink="http://www.w3.org/1999/xlink" x="0px" y="0px"
	 width="30.185px" height="30.186px" viewBox="0 0 30.185 30.186" style="enable-background:new 0 0 30.185 30.186;"
	 xml:space="preserve">
<g>
	<path d="M29.459,0.004c0,0-6.075,12.384-9.729,9.904c-1.083-0.697-2.304-0.947-4.64-0.928c-2.335,0.021-2.327,0.286-4.955,0.925
		C4.79,11.169,0.409,0,0.409,0s-1.837,14.638,7.583,16.105c0.393-0.125-0.797,2.237,0.643,4.53c1.44,2.292,2.531,2.435,2.354,4.286
		c0.052,1.137,1.088,4.938,3.881,5.26c0.022-0.017,0.107-0.011,0.131,0.004c2.793-0.321,4.04-4.269,3.882-5.261
		c-0.179-1.852,0.969-1.903,2.407-4.194c1.439-2.293,0.082-4.116,0.59-4.621C32.728,14.044,29.459,0.004,29.459,0.004z
		 M12.252,19.814c-0.372-0.199-2.909-1.828-2.381-2.443c0.528-0.617,3.192,1.411,3.39,1.646
		C13.457,19.251,12.624,20.016,12.252,19.814z M14.229,29.419c-0.439-0.028-0.967-0.998-0.683-1.438
		c0.284-0.439,0.676-0.322,0.676,0C14.222,28.305,14.669,29.449,14.229,29.419z M15.641,29.423
		c-0.441,0.029,0.007-1.116,0.007-1.438s0.393-0.439,0.676,0C16.608,28.425,16.079,29.395,15.641,29.423z M17.617,19.818
		c-0.371,0.201-1.203-0.562-1.009-0.799c0.197-0.234,2.861-2.264,3.39-1.646C20.527,17.99,17.99,19.617,17.617,19.818z"/>
</g>
<g>
</g>
<g>
</g>
<g>
</g>
<g>
</g>
<g>
</g>
<g>
</g>
<g>
</g>
<g>
</g>
<g>
</g>
<g>
</g>
<g>
</g>
<g>
</g>
<g>
</g>
<g>
</g>
<g>
</g>
</svg>
