<?xml version="1.0" encoding="iso-8859-1"?>
<!-- Generator: Adobe Illustrator 16.0.0, SVG Export Plug-In . SVG Version: 6.00 Build 0)  -->
<!DOCTYPE svg PUBLIC "-//W3C//DTD SVG 1.1//EN" "http://www.w3.org/Graphics/SVG/1.1/DTD/svg11.dtd">
<svg version="1.1" id="Capa_1" xmlns="http://www.w3.org/2000/svg" xmlns:xlink="http://www.w3.org/1999/xlink" x="0px" y="0px"
	 width="32.471px" height="32.471px" viewBox="0 0 32.471 32.471" style="enable-background:new 0 0 32.471 32.471;"
	 xml:space="preserve">
<g>
	<path d="M18.062,19.917c-1.046-1.659-1.812-3.278-1.995-5.549c-0.16-1.99,0.972-3.76,1.542-4.328c0,0,1.397-0.276,1.791-0.777
		c1.405-1.445,0.457-1.681,0-1.809c4.584-0.732,2.91-3.774,2.91-3.774s1.783,0.423,1.77-0.786c-0.297-1.463-5.35-1.728-7.703,4.896
		c-0.453-0.47-1.865-0.577-1.929-0.888c-0.034-0.166-0.044-0.485-0.046-0.749c0.304-0.104,0.583-0.265,0.829-0.479
		c0.105-0.024,0.205-0.059,0.299-0.101c-0.089,0.323-0.261,0.663-0.597,0.759c1.978,0.529,1.456-3.318,1.348-3.887
		c-0.107-0.566-0.693-1.399-0.878-1.68c-0.186-0.278-0.986-1.165-1.789-0.555c-0.353-0.192-1.027-0.149-1.423,0
		c-0.397,0.15-2.002,1.371-1.585,3.736c0.417,2.366,0.696,2.292,0.696,2.292l-0.107-0.483c0,0,0.835,1.702,1.627,1.017
		c-0.487,0.123-0.439-0.278-0.439-0.278s0.284,0.113,0.531,0.153c-0.037,0.211-0.075,0.415-0.1,0.521
		c-0.052,0.225-0.709,0.479-1.152,0.639c-0.033-0.062-0.06-0.113-0.066-0.106C9.241,1.077,4.189,1.341,3.892,2.805
		C3.878,4.014,5.661,3.59,5.661,3.59S3.985,6.632,8.57,7.365c-0.457,0.127-1.405,0.362,0,1.808c0.151,0.192,0.45,0.352,0.761,0.475
		c-0.322,0.545-0.818,1.784-1.166,1.742C7.708,11.334,5.43,9.147,4.959,9.1C4.488,9.051,4.327,9.383,3.155,9.04
		c-1.172-0.345-0.3,0.671,0.094,0.905c0.394,0.235,1.516-0.349,2.047,0.34c0.339,0.335,1.989,2.367,2.977,2.396
		c0.987,0.029,1.901-1.961,2.123-1.965c0.649,0.019,2.15,2.588,0.983,4.796c-1.895,3.104-0.004,10.581-0.437,14.354
		c-0.196,2.317,2.365,1.918,3.583,1.25c1.926-1.022,1.9-0.276,3.875,0.709c1.977,0.983,4.801,0.955,4.293-0.875
		s6.898,0.842,7.213-1.008C29.546,28.181,19.107,21.576,18.062,19.917z M12.947,6.452c-0.403-0.22-0.655-0.476-0.802-0.742
		c0.252,0.213,0.539,0.37,0.85,0.466C12.981,6.256,12.965,6.35,12.947,6.452z"/>
</g>
<g>
</g>
<g>
</g>
<g>
</g>
<g>
</g>
<g>
</g>
<g>
</g>
<g>
</g>
<g>
</g>
<g>
</g>
<g>
</g>
<g>
</g>
<g>
</g>
<g>
</g>
<g>
</g>
<g>
</g>
</svg>
