<?xml version="1.0" encoding="iso-8859-1"?>
<!-- Generator: Adobe Illustrator 16.0.0, SVG Export Plug-In . SVG Version: 6.00 Build 0)  -->
<!DOCTYPE svg PUBLIC "-//W3C//DTD SVG 1.1//EN" "http://www.w3.org/Graphics/SVG/1.1/DTD/svg11.dtd">
<svg version="1.1" id="Capa_1" xmlns="http://www.w3.org/2000/svg" xmlns:xlink="http://www.w3.org/1999/xlink" x="0px" y="0px"
	 width="31.033px" height="31.033px" viewBox="0 0 31.033 31.033" style="enable-background:new 0 0 31.033 31.033;"
	 xml:space="preserve">
<g>
	<path d="M26.857,18.48c-0.473-0.312-4.092-2.923-0.094-6.876c0.127-0.125,0.232-0.247,0.377-0.375c-0.188-3.938-3.5-8-4.875-8.375
		C22.25,2.85,22.242,2.85,22.227,2.846c-0.146-0.039-0.293-0.067-0.434-0.085c-0.051-0.006-0.1-0.006-0.146-0.01
		c-0.08-0.007-0.16-0.017-0.234-0.017c-0.016,0-0.023,0.004-0.037,0.004c-0.199,0.002-0.383,0.026-0.559,0.065
		c-0.041,0.009-0.076,0.021-0.113,0.031c-0.154,0.042-0.301,0.093-0.434,0.155c-0.02,0.008-0.037,0.014-0.053,0.021
		c-0.145,0.072-0.275,0.154-0.395,0.239c-0.027,0.021-0.056,0.04-0.08,0.061c-0.113,0.086-0.218,0.174-0.306,0.262
		c-0.06-0.051-0.142-0.097-0.229-0.139c-0.024-0.011-0.049-0.021-0.078-0.033c-0.075-0.031-0.159-0.06-0.25-0.084
		C18.853,3.309,18.828,3.3,18.8,3.294c-0.117-0.029-0.244-0.052-0.378-0.069c-0.022-0.003-0.049-0.004-0.071-0.006
		c-0.11-0.012-0.226-0.018-0.34-0.02c-0.021,0-0.041-0.004-0.062-0.004c-0.012,0-0.021,0.003-0.029,0.003
		c-0.27,0.002-0.535,0.029-0.777,0.094c-0.812,0.219-2.748,3.848-2.566,4.81c0.105,0.563,1.835,0.497,1.675,1.175
		c-0.021,0.088-0.075,0.145-0.149,0.182c-0.026,0.014-0.069,0.014-0.104,0.021c-0.059,0.015-0.112,0.031-0.186,0.032
		c-0.082,0.001-0.174-0.007-0.27-0.018c-0.025-0.003-0.047-0.003-0.072-0.005c-0.146-0.021-0.303-0.046-0.461-0.072
		c-0.102-0.017-0.203-0.033-0.301-0.045c-0.045-0.006-0.084-0.006-0.127-0.01c-0.068-0.006-0.139-0.016-0.199-0.016
		c-0.01,0-0.016,0.004-0.023,0.004c-0.08,0.002-0.143,0.019-0.205,0.035c-0.035,0.008-0.076,0.01-0.105,0.023
		c-0.08,0.041-0.143,0.101-0.168,0.195c-0.223,0.797-0.91,2.047-1.426,2.563c-0.287,0.287,1.125,0.297,1.074,0.836
		c0.02,0.258-0.313,0.5-0.25,0.672c0.062,0.172,0.513,0.391,0.513,0.391s-0.445,0.023-0.508,0.258
		c-0.063,0.235,0.633,0.555,0.633,0.555s-0.777,1.165-0.09,1.728c0.086,0.069,0.191,0.117,0.307,0.146
		c0.043,0.011,0.094,0.01,0.139,0.017c0.078,0.012,0.156,0.024,0.24,0.024c0.002,0,0.004,0,0.008,0c0.014,0,0.027-0.002,0.041-0.002
		c0.197-0.004,0.402-0.024,0.605-0.051c0.209-0.025,0.408-0.048,0.586-0.052c0.1-0.004,0.196-0.002,0.276,0.013
		c0.006,0.002,0.01,0.004,0.016,0.006c0.078,0.017,0.144,0.047,0.197,0.088c0.017,0.011,0.028,0.022,0.043,0.037
		c0.051,0.053,0.092,0.117,0.104,0.211c0,1.709-3.207,3.416-3.895,4.229c-0.688,0.812-0.605,3.582-0.918,3.957
		c-0.023,0.028-0.074,0.049-0.135,0.067c-0.018,0.004-0.041,0.009-0.061,0.015c-0.053,0.012-0.113,0.021-0.182,0.026
		c-0.027,0.002-0.053,0.006-0.082,0.009c-0.098,0.008-0.205,0.014-0.326,0.016c-0.008,0-0.016,0-0.023,0
		c-0.119,0.004-0.25,0.004-0.387,0.004c-0.088,0.002-0.178,0.002-0.271,0c-0.051,0-0.1,0-0.152,0c-0.02,0-0.041,0.002-0.061,0.002
		c-0.092,0-0.182,0-0.273,0c-0.057,0.002-0.113,0.002-0.17,0.002c-0.1,0.002-0.199,0.006-0.297,0.01
		c-0.047,0.002-0.092,0.002-0.137,0.004c-0.143,0.008-0.283,0.016-0.418,0.027c-0.012,0.002-0.021,0.004-0.033,0.004
		c-0.121,0.014-0.238,0.027-0.352,0.047c-0.039,0.006-0.074,0.016-0.111,0.021c-0.082,0.017-0.162,0.033-0.236,0.056
		c-0.039,0.01-0.076,0.022-0.113,0.034c-0.066,0.021-0.127,0.048-0.184,0.074c-0.031,0.017-0.064,0.029-0.094,0.049
		c-0.055,0.031-0.098,0.068-0.141,0.104c-0.02,0.02-0.043,0.035-0.061,0.057c-0.051,0.062-0.092,0.127-0.111,0.203
		c0.025,0.07,0.053,0.146,0.078,0.224c0,0,0,0.002,0.002,0.002c0.234,0.674,0.488,1.498,1.105,1.442
		c0.041-0.008,0.105-0.016,0.168-0.021c0.039-0.004,0.08-0.01,0.127-0.014c0.072-0.006,0.152-0.012,0.24-0.019
		c0.023-0.002,0.043-0.004,0.066-0.006c0.104-0.006,0.217-0.01,0.332-0.015c0.037,0,0.078-0.002,0.117-0.002
		c0.115-0.002,0.232-0.002,0.348,0.002c0.012,0,0.021,0,0.031,0.002c0.121,0.005,0.238,0.015,0.348,0.025
		c0.021,0.002,0.041,0.004,0.061,0.006c0.107,0.017,0.205,0.035,0.291,0.062c0.018,0.004,0.033,0.01,0.051,0.015
		c0.082,0.026,0.152,0.061,0.201,0.102c0.008,0.006,0.012,0.014,0.018,0.02c0.047,0.047,0.078,0.098,0.076,0.158
		c-0.125,0.008-0.236,0.021-0.34,0.033c-0.035,0.004-0.063,0.012-0.094,0.018c-0.064,0.012-0.129,0.021-0.184,0.033
		c-0.041,0.008-0.074,0.021-0.109,0.03c-0.039,0.011-0.08,0.021-0.115,0.032c-0.037,0.014-0.066,0.028-0.1,0.043
		c-0.025,0.012-0.053,0.021-0.074,0.033c-0.033,0.02-0.061,0.036-0.088,0.057c-0.014,0.01-0.029,0.02-0.041,0.027
		c-0.029,0.022-0.053,0.049-0.074,0.073c-0.006,0.006-0.012,0.013-0.018,0.019c-0.023,0.026-0.039,0.059-0.055,0.086
		c0,0.004-0.002,0.006-0.004,0.008c-0.139,0.303,0.133,0.629,0.133,0.629s2.1,1.061,2.725,1.186c0.012-0.033,0.029-0.063,0.041-0.1
		c1.268-3.377,5.008-6.148,5.473-6.484c0.031-0.021,0.05-0.033,0.05-0.033s-0.021,0.021-0.056,0.062
		c-0.021,0.023-0.053,0.062-0.084,0.102c-0.026,0.029-0.045,0.053-0.078,0.092c-0.051,0.062-0.112,0.136-0.18,0.216
		c-0.021,0.024-0.039,0.045-0.062,0.073c-0.068,0.082-0.146,0.177-0.229,0.273c-0.033,0.041-0.063,0.078-0.099,0.121
		c-0.082,0.1-0.168,0.203-0.258,0.312c-0.041,0.051-0.08,0.098-0.121,0.149c-0.095,0.115-0.19,0.234-0.291,0.359
		c-0.043,0.055-0.088,0.108-0.134,0.166c-0.102,0.127-0.202,0.258-0.309,0.391c-0.048,0.06-0.095,0.119-0.142,0.181
		c-0.104,0.136-0.21,0.271-0.317,0.41c-0.047,0.062-0.094,0.12-0.139,0.184c-0.109,0.143-0.215,0.281-0.32,0.424
		c-0.045,0.062-0.09,0.121-0.133,0.182c-0.107,0.146-0.211,0.287-0.313,0.43c-0.041,0.058-0.08,0.111-0.119,0.168
		c-0.102,0.144-0.199,0.283-0.293,0.423c-0.037,0.053-0.068,0.104-0.104,0.155c-0.092,0.137-0.182,0.271-0.264,0.4
		c-0.027,0.045-0.051,0.086-0.078,0.131c-0.08,0.133-0.16,0.262-0.227,0.383c-0.014,0.025-0.023,0.049-0.039,0.074
		c-0.326,0.607-0.459,1.051-0.221,1.15c1.211,0.312,1.645,0.25,2.979,0.291c0.18,0.006,0.461-0.117,0.809-0.326c0,0,0,0,0.003,0
		c0.043-0.025,0.094-0.062,0.141-0.092c0.19-0.121,0.399-0.264,0.625-0.428c0.052-0.039,0.099-0.07,0.149-0.111
		c0.123-0.09,0.248-0.188,0.378-0.289c0.063-0.049,0.127-0.098,0.19-0.148c0.131-0.104,0.267-0.213,0.401-0.324
		c0.062-0.049,0.121-0.1,0.183-0.147c0.146-0.121,0.293-0.242,0.442-0.369c0.013-0.01,0.024-0.021,0.037-0.03
		c0.358-0.304,0.726-0.615,1.092-0.937c0.021-0.019,0.043-0.035,0.063-0.056c0.152-0.133,0.304-0.266,0.453-0.396
		c0.108-0.096,0.217-0.189,0.324-0.283c0.067-0.059,0.133-0.115,0.198-0.174c0.806-0.705,1.562-1.367,2.164-1.861
		c0.022-0.02,0.047-0.041,0.069-0.061c0.113-0.092,0.22-0.174,0.318-0.252c0.038-0.029,0.073-0.061,0.11-0.086
		c0.092-0.07,0.178-0.135,0.256-0.189c0.033-0.021,0.062-0.039,0.09-0.061c0.074-0.051,0.146-0.098,0.205-0.129
		c0.08-0.044,0.15-0.078,0.199-0.084c0.104-0.018,0.088-0.109-0.019-0.266c-0.03-0.047-0.082-0.105-0.127-0.162
		c-0.028-0.037-0.054-0.066-0.09-0.107c-0.06-0.068-0.134-0.148-0.209-0.229c-0.037-0.039-0.07-0.076-0.109-0.117
		c-0.098-0.104-0.207-0.213-0.321-0.329c-0.017-0.017-0.031-0.031-0.047-0.048c-0.377-0.379-0.828-0.823-1.324-1.33
		c-0.008-0.008-0.017-0.018-0.022-0.022c-0.209-0.215-0.426-0.438-0.646-0.67l0,0c-0.431-0.453-0.869-0.938-1.293-1.44
		c-0.052-0.062-0.103-0.127-0.153-0.189c-0.15-0.184-0.3-0.367-0.443-0.555c-0.067-0.088-0.133-0.176-0.196-0.264
		c-0.125-0.166-0.246-0.332-0.363-0.5c-0.067-0.101-0.135-0.199-0.198-0.3c-0.106-0.16-0.209-0.321-0.308-0.483
		c-0.062-0.104-0.121-0.207-0.178-0.31c-0.093-0.164-0.175-0.326-0.255-0.489c-0.049-0.101-0.1-0.199-0.143-0.3
		c-0.076-0.176-0.142-0.353-0.201-0.526c-0.028-0.085-0.063-0.17-0.09-0.254c-0.076-0.257-0.138-0.513-0.171-0.765
		c2.75,4.063,5.834,7.849,7.396,8.099c0.023,0.004,0.046,0.004,0.068,0.004c0-0.002,0.002-0.004,0.002-0.006
		c1.476,0.1,1.112-4.125,1.112-4.125S26.891,18.501,26.857,18.48z"/>
	<path d="M6.68,25.414c0.016-0.021,0.024-0.041,0.042-0.062c0.033-0.035,0.07-0.07,0.128-0.119c0.078-0.068,0.159-0.133,0.245-0.183
		c0.04-0.022,0.085-0.047,0.153-0.08c0.083-0.04,0.172-0.075,0.31-0.122c0.037-0.013,0.075-0.023,0.114-0.035
		c0.09-0.025,0.188-0.047,0.324-0.074c0.036-0.008,0.073-0.016,0.102-0.021c0.127-0.02,0.259-0.036,0.436-0.055
		c0.145-0.015,0.295-0.022,0.456-0.031l0.085-0.002l0.054-0.002c0.103-0.004,0.208-0.006,0.314-0.008l0.092-0.002h0.083l0.28-0.002
		h0.059h0.003h0.16h0.13h0.134c0.133,0,0.259-0.002,0.392-0.005c0.079,0,0.151-0.004,0.218-0.008
		c0.037-0.223,0.073-0.539,0.103-0.793c0.127-1.106,0.271-2.365,0.829-3.022c0.256-0.304,0.687-0.627,1.231-1.039
		c0.785-0.59,2.017-1.521,2.381-2.295c-0.089,0.008-0.182,0.019-0.275,0.028c-0.191,0.023-0.416,0.05-0.658,0.058l-0.041,0.004
		h-0.04h-0.082l-0.016-0.004c-0.082-0.004-0.163-0.017-0.255-0.028c-0.074-0.005-0.148-0.015-0.219-0.031
		c-0.233-0.062-0.436-0.16-0.597-0.293c-0.682-0.56-0.641-1.375-0.406-2.03c-0.43-0.37-0.462-0.744-0.387-1.025
		c0.012-0.043,0.025-0.084,0.042-0.124c-0.014-0.031-0.023-0.056-0.03-0.075c-0.106-0.294-0.036-0.553,0.055-0.742
		c-0.018-0.006-0.034-0.011-0.049-0.016c-0.327-0.11-0.777-0.26-0.892-0.747c-0.066-0.28,0.022-0.576,0.236-0.79
		c0.419-0.419,1.042-1.546,1.231-2.227c0.078-0.29,0.273-0.528,0.575-0.682c0.093-0.043,0.168-0.059,0.203-0.064
		c0.016-0.028,0.031-0.057,0.046-0.083c-0.061-0.102-0.116-0.209-0.142-0.342c-0.235-1.25,1.814-5.324,3.108-5.673
		c0.271-0.073,0.574-0.113,0.911-0.119l0.023-0.004h0.066c0.033,0,0.066,0.002,0.074,0.004c0.139,0.002,0.271,0.01,0.414,0.025
		l0.061,0.005l0.02,0.002c0.163,0.021,0.318,0.049,0.454,0.083C19,2.571,19.031,2.58,19.076,2.593
		c0.09,0.025,0.176,0.053,0.26,0.083l0.048-0.036c0.167-0.12,0.329-0.218,0.479-0.292c0.033-0.019,0.073-0.036,0.084-0.039
		c0.168-0.079,0.352-0.145,0.574-0.206c0.04-0.011,0.082-0.022,0.13-0.034C20.842,2.027,21.024,2.01,21.205,2
		c-1.683-1.262-3.617-2-5.689-2C9.096,0,3.893,6.912,3.893,15.438C3.893,19.251,4.954,22.72,6.68,25.414z"/>
</g>
<g>
</g>
<g>
</g>
<g>
</g>
<g>
</g>
<g>
</g>
<g>
</g>
<g>
</g>
<g>
</g>
<g>
</g>
<g>
</g>
<g>
</g>
<g>
</g>
<g>
</g>
<g>
</g>
<g>
</g>
</svg>
